# xmcd
#
# Track frame offsets:
#   150
#   14392
#   30958
#   44171
#   60763
#   76594
#   96090
#   114189
#   130242
#   150640
#   167539
#
# Disc length: 2505 seconds
#
# Revision: 0
# Processed by: cddbd v1.5.1PL0 Copyright (c) Steve Scherf et al.
# Submitted via: Media_Universe 3.0
#
DISCID=7109c70b
DTITLE=Rachel Proctor - Where I Belong
DYEAR=1900
DGENRE=Country
TTITLE0=Days Like This 
TTITLE1=Me And Emily
TTITLE2=I'm Gonna Get You Back
TTITLE3=Strong As An Oak
TTITLE4=Shame On Me
TTITLE5=If That Chair Could Talk
TTITLE6=If You're Gonna Leave Me (Leave Me Alone)
TTITLE7=Didnt I
TTITLE8=So Close
TTITLE9=We Did It Our Way
TTITLE10=Where I Belong
EXTD=
EXTT0=
EXTT1=
EXTT2=
EXTT3=
EXTT4=
EXTT5=
EXTT6=
EXTT7=
EXTT8=
EXTT9=
EXTT10=
PLAYORDER=
